<svg height="512pt" viewBox="0 0 512 512" width="512pt" xmlns="http://www.w3.org/2000/svg"><path d="m256 0c-140.699219 0-256 115.300781-256 256s115.300781 256 256 256 256-115.300781 256-256-115.300781-256-256-256zm0 0" fill="#596c76"/><path d="m512 256c0 140.699219-115.300781 256-256 256v-512c140.699219 0 256 115.300781 256 256zm0 0" fill="#474f54"/><path d="m256 61c-107.402344 0-195 87.597656-195 195 0 107.398438 87.597656 195 195 195s195-87.601562 195-195c0-107.402344-87.597656-195-195-195zm0 0" fill="#fdbf00"/><path d="m451 256c0 107.398438-87.597656 195-195 195v-390c107.402344 0 195 87.597656 195 195zm0 0" fill="#ff9100"/><path d="m331 166h-150c-8.402344 0-15 6.597656-15 15v150c0 8.398438 6.597656 15 15 15h150c8.402344 0 15-6.601562 15-15v-150c0-8.402344-6.597656-15-15-15zm0 0" fill="#596c76"/><path d="m346 181v150c0 8.398438-6.597656 15-15 15h-75v-180h75c8.402344 0 15 6.597656 15 15zm0 0" fill="#474f54"/></svg>